PathFileType	4	(X/Y/Z)	RBDS022\RBDS022runT25.trc
DataRate	CameraRate	NumFrames	NumMarkers	Units	OrigDataRate	OrigDataStartFrame	OrigNumFrames
150.000000	150.000000	6	33	mm	150.000000	562	4500
Frame#	Time	L.ASIS			L.Heel.Bottom			L.Heel.Lateral			L.Heel.Top			L.Iliac.Crest			L.MT1			L.MT5			L.PSIS			L.Shank.Bottom.Lateral			L.Shank.Bottom.Medial			L.Shank.Top.Lateral			L.Shank.Top.Medial			L.Thigh.Bottom.Lateral			L.Thigh.Bottom.Medial			L.Thigh.Top.Lateral			L.Thigh.Top.Medial			R.ASIS			R.ASY			R.Heel.Bottom			R.Heel.Lateral			R.Heel.Top			R.Iliac.Crest			R.MT1			R.MT5			R.PSIS			R.Shank.Bottom.Lateral			R.Shank.Bottom.Medial			R.Shank.Top.Lateral			R.Shank.Top.Medial			R.Thigh.Bottom.Lateral			R.Thigh.Bottom.Medial			R.Thigh.Top.Lateral			R.Thigh.Top.Medial			
		X1	Y1	Z1	X2	Y2	Z2	X3	Y3	Z3	X4	Y4	Z4	X5	Y5	Z5	X6	Y6	Z6	X7	Y7	Z7	X8	Y8	Z8	X9	Y9	Z9	X10	Y10	Z10	X11	Y11	Z11	X12	Y12	Z12	X13	Y13	Z13	X14	Y14	Z14	X15	Y15	Z15	X16	Y16	Z16	X17	Y17	Z17	X18	Y18	Z18	X19	Y19	Z19	X20	Y20	Z20	X21	Y21	Z21	X22	Y22	Z22	X23	Y23	Z23	X24	Y24	Z24	X25	Y25	Z25	X26	Y26	Z26	X27	Y27	Z27	X28	Y28	Z28	X29	Y29	Z29	X30	Y30	Z30	X31	Y31	Z31	X32	Y32	Z32	X33	Y33	Z33	

563	3.746666666666667	2210.848729852354	938.5916653079164	890.1843233725515	1923.841501164915	34.57833643382671	998.4690633037385	1953.756064958354	57.7723608818296	952.884658134388	1936.063898242275	79.52724893653851	1001.92481455454	2127.769459014333	1009.254245860745	844.7954211929978	2145.832941760393	39.37026119370096	1026.587224536703	2104.807902750628	37.73187739173449	914.4929770676084	2042.316493638657	967.9247997062596	970.3506460166227	2036.300797522831	164.1239815356531	928.7805083798611	1998.300225777299	189.2122410726262	961.1562386815764	2063.141467877506	236.7191182629243	905.7035579489683	2027.604636457849	261.5229162582942	938.2137650326428	2186.62035349841	567.5652936188887	862.6201681850648	2120.605033936398	562.9287669571459	893.2931465537755	2164.857643168627	670.9412769410981	833.7152169199674	2103.598928990153	667.7961749216764	867.0384996436512	2210.869310312728	926.2811897392407	1127.900857427226	2010.001186457759	165.8980702093773	1094.970082930129	1860.759860255399	284.849260899741	1065.896681900267	1891.732058951805	277.0215304721236	1113.856106707769	1900.708614144748	303.3827578747175	1065.221915757113	2152.819144242238	989.5144933775629	1170.855591544446	1989.393566848059	115.0746137885683	1052.022379438292	1968.377222923953	142.6706663961164	1160.892939922763	2047.927725471488	962.4598883964337	1053.879909065235	2008.379627894346	318.1678439491554	1134.993885547765	1995.702117904934	351.5485090149911	1098.000504658203	2078.433249639498	363.4045016489468	1150.098234795416	2060.087056136776	398.0813598465972	1114.167597639512	2274.702852611774	566.7807946842436	1174.853650140938	2217.491689641065	544.0505569474424	1139.253840663304	2228.524266167617	665.7336749184681	1189.900740893589	2170.500943970748	641.5559339299149	1162.299216431402	
564	3.753333333333333	2210.668753895498	939.918890832602	890.5646589663907	1907.267454969538	37.3513384329594	998.6175230057639	1937.369080225816	60.07179529866518	952.9507735216314	1919.94742444467	82.16026663011168	1001.928280442066	2129.681231755816	1011.680824867384	844.8063928641756	2128.915388928853	39.18824212480961	1026.730828528734	2087.932145366894	37.83658707229546	914.6590978911804	2042.168772430922	970.3640308803649	970.176284065863	2020.920633004208	166.0011634463297	928.8000483532603	1983.133222560435	191.4872586217905	961.1591117952484	2048.529752073377	238.3289776223235	905.6764068355895	2013.187128486843	263.49940524192	938.1840450689408	2177.949643749889	568.4776355682968	862.5667535126748	2111.583695531662	565.4097209715284	892.682844495381	2158.996500019947	672.4709948383801	833.8290668464008	2097.458214851414	670.7682262377901	866.7594806693018	2210.187610119449	928.5118324214933	1128.048800097683	2029.360713141624	160.6360112805287	1095.000815297197	1874.676192115714	272.8290147717534	1067.60937308314	1906.290707224838	266.0289516896021	1115.361367064834	1913.817347520706	293.1110596719897	1066.85328568374	2151.13032446853	992.0293081249437	1171.061510046003	2010.872269941508	109.3923077007522	1051.72909053235	1989.265268749665	135.0447675105634	1160.903707473642	2047.370713233528	964.7199026559705	1053.937257516855	2021.364279244014	312.1856566418014	1136.102911978093	2007.112149065526	345.3460457578656	1099.448810881257	2089.703298833201	360.0792614091617	1151.185563793794	2069.726005059768	394.2708069743135	1115.643326329465	2279.614235326897	572.015752426131	1175.294882393842	2222.998243565798	548.0450513679757	1139.621937169627	2231.352785199724	669.9891395116236	1190.268979079366	2174.030647194149	644.618153690613	1162.539171129138	
565	3.76	2210.602382560363	941.5910890608199	890.9903568783479	1890.887000862292	40.80443852097118	998.7443277386992	1921.230088132015	62.92291184447124	952.9814531192087	1904.12524919373	85.42603541928584	1001.882055983177	2131.725013163337	1014.321701737834	844.942615548546	2112.060474164294	39.07287410144492	1026.830469607326	2071.141410638637	38.02939512567128	914.8003943707794	2042.169713882726	973.1669728309681	970.0877892153306	2005.698755611001	168.3795687576659	928.7846308129905	1968.142226914569	194.1910341391219	961.1635256979823	2033.97607098197	240.4689640766169	905.6179153499705	1998.850519928835	265.9491800059967	938.1666029600631	2169.133410710516	569.9511627314912	862.5338470083557	2102.518675287914	568.5232290412673	892.2088245569313	2153.05971644381	674.492927270259	834.0080196192004	2091.316239080996	674.2821263350285	866.600493521846	2209.653548340969	931.2453355413348	1128.255165338442	2049.192131682064	155.2109566885807	1094.89978709113	1889.170770069065	260.090665642833	1069.084458815614	1921.331258040621	254.3579256664676	1116.678860806834	1927.371571571749	282.156261661729	1068.36593235507	2149.766401434435	995.0112935541204	1171.330429710671	2033.008359982697	103.6968914112061	1051.219134175856	2010.697496426586	127.166283230133	1160.670336969086	2046.941771488762	967.4464463147261	1054.085332920105	2034.394196752525	305.8995876421278	1137.084610150736	2018.54137634434	338.6682593920914	1100.693652763811	2100.788120288194	356.5987543368304	1152.154911704684	2079.121087679126	390.1142647546441	1116.924311849904	2283.86565348234	577.5209089780772	1175.633576887909	2227.814791960154	552.4982538227845	1139.83657329187	2233.729548554055	674.5808455694505	1190.59632515088	2177.105714077398	648.2021909036378	1162.627093711471	
566	3.766666666666667	2210.663374293636	943.5742233151432	891.4576654863482	1874.749488931521	44.97196495645013	998.845746011581	1905.392033883113	66.3472493733358	952.9729189513988	1888.655531583998	89.35167798354155	1001.778268838157	2133.831504628626	1017.153235592663	845.1960363654488	2095.286581083767	39.01811288430415	1026.876245289273	2054.45974944935	38.31067620614737	914.9074139302112	2042.32303456285	976.2981015736055	970.074686421284	1990.700111967262	171.2690770090668	928.7266326355319	1953.399975111889	197.3327222914691	961.1690404617241	2019.560276094273	243.1474032280841	905.5337612992639	1984.671388168318	268.8820773086949	938.1631087908606	2160.23284255142	571.9683713211618	862.5413649722973	2093.483004775933	572.2523857854279	891.9135400697581	2147.099836297702	676.9812363012597	834.258796515487	2085.232579266543	678.3139576082025	866.5818565492627	2209.269457317814	934.4326031117241	1128.517374545236	2069.485330989924	149.6940740912643	1094.71479638621	1904.30328457442	246.7160854719037	1070.254952607673	1936.888961842313	242.1000224427212	1117.752880006135	1941.419679452081	270.5952492361629	1069.695668813805	2148.743576892891	998.4408085226261	1171.655912182233	2055.780895869956	98.05361310802799	1050.562967476576	2032.644001163208	119.1450088204936	1160.244460597777	2046.648996078207	970.6036029451577	1054.311823298983	2047.478409479844	299.3367286352022	1137.906887126022	2030.037202053033	331.533877428929	1101.685760567458	2111.673462742689	352.9528359627665	1152.985550681873	2088.30122633058	385.5943268229937	1117.970041570231	2287.445386797344	583.1821645512438	1175.87101770457	2231.907084744931	557.2978255896148	1139.914137053621	2235.663564131328	679.4149358262439	1190.876604612182	2179.701266116371	652.2151638056486	1162.585367784979	
567	3.773333333333333	2210.867693480927	945.8310060007191	891.9669904802239	1858.903127183067	49.86694111505131	998.9179258327507	1889.902457975615	70.34875159321261	952.9219399662696	1873.59347706854	93.94304765067379	1001.610501133337	2135.955258323507	1020.166707220745	845.5546454241294	2078.610324605993	39.01232351368085	1026.859990170043	2037.909070802473	38.67697623693342	914.9697244221379	2042.632254042213	979.7167213110777	970.1231414034771	1975.985367056909	174.6665429499546	928.6169499686149	1938.974091530662	200.911067968753	961.174752925548	2005.358213467546	246.3595836942809	905.4280757923062	1970.720866852397	272.2957420211643	938.1739826765414	2151.316854446157	574.502925389919	862.59969461156	2084.553562277223	576.5643560652045	891.8232149016627	2141.172677434367	679.904078170008	834.5807529244165	2079.268201693406	682.8283095307983	866.7134158348061	2209.032287499731	938.0204453615125	1128.833950122993	2090.226882302559	144.1568134757653	1094.497941028924	1920.132334938152	232.7978530688785	1071.053125464494	1952.994834472036	229.3588608608999	1118.525051039018	1956.012856888354	258.5120838730077	1070.769602734183	2148.057639069576	1002.295844094146	1172.030543015806	2079.164634269248	92.52106681535803	1049.839276868618	2055.062497829013	111.0952009677687	1159.685802486958	2046.498483701206	974.1454419006197	1054.602008948885	2060.628300451392	292.5231141620146	1138.534297405032	2041.650996021102	323.9649262506814	1102.374344064332	2122.345541505525	349.1279844358419	1153.654597496011	2097.301327304659	380.6963739368493	1118.739087132312	2290.351576133774	588.886503727032	1176.008720383524	2235.252882819253	562.327640099738	1139.873951135285	2237.170066547096	684.3961649185326	1191.104864040058	2181.801672447491	656.5585570207828	1162.441190867927	
568	3.78	2211.231436149214	948.3217563630942	892.5211426408932	1843.395822138237	55.48305850078392	998.9570563432849	1874.804020133477	74.91672671371882	952.8264240422185	1858.991721910881	99.18660611667232	1001.374976187901	2138.074494584757	1023.360470401326	846.0060327587485	2062.048720530774	39.04369029153595	1026.776157595713	2021.509925514262	39.1251127452056	914.9774872582676	2043.10073109574	983.3767796484869	970.2179594519686	1961.611446937904	178.5567539664111	928.4473049547616	1924.92764158816	204.9152815851759	961.1812594045333	1991.441741891345	250.088633234021	905.3045889275747	1957.066020756897	276.1764250925703	938.2003918676364	2142.459954811172	577.5202001258749	862.7093383144643	2075.809559500033	581.4109616082449	891.9485593965047	2135.333831410021	683.2239071973904	834.9661420140692	2073.483234457567	687.7783804005659	866.9965466127768	2208.93465500072	941.9525654930261	1129.203747499093	2111.395539672688	138.6732765996967	1094.298892423588	1936.711209146709	218.4405757062918	1071.417425147058	1969.674095262268	216.2502824940549	1118.939982126688	1971.201492239272	245.9984453343534	1071.512509640503	2147.686179799194	1006.54832301669	1172.446886400328	2103.126746810142	87.15593528792074	1049.12838095971	2077.899218558857	103.1359589218315	1159.057398546175	2046.494089720538	978.0170450452323	1054.940190078766	2073.857312728634	285.4860675291525	1138.930692195841	2053.434800900119	315.9894608327687	1102.71150266322	2132.793213968958	345.1093409836015	1154.138304422905	2106.161573188716	375.4108321038215	1119.191993076931	2292.590016820099	594.5237088527454	1176.048048605458	2237.839866972793	567.4709664869242	1139.737218049526	2238.267169495813	689.429649936887	1191.278221750928	2183.3998380206	661.131247915042	1162.223985618187	
